<svg xmlns="http://www.w3.org/2000/svg" xmlns:xlink="http://www.w3.org/1999/xlink" width="500" zoomAndPan="magnify" viewBox="0 0 375 374.999991" height="500" preserveAspectRatio="xMidYMid meet" version="1.0"><defs><clipPath id="7a6177b85d"><path d="M 75 0 L 300 0 C 341.421875 0 375 33.578125 375 75 L 375 300 C 375 341.421875 341.421875 375 300 375 L 75 375 C 33.578125 375 0 341.421875 0 300 L 0 75 C 0 33.578125 33.578125 0 75 0 Z M 75 0 " clip-rule="nonzero"/></clipPath></defs><g clip-path="url(#7a6177b85d)"><rect x="-37.5" width="450" fill="#f1f1f1" y="-37.499999" height="449.999989" fill-opacity="1"/></g><path stroke-linecap="butt" transform="matrix(0.75, 0, 0, 0.75, 72.839964, 31.086963)" fill="none" stroke-linejoin="miter" d="M -0.000159956 20.998634 L 286.176942 20.998634 " stroke="#101010" stroke-width="42" stroke-opacity="1" stroke-miterlimit="4"/><path stroke-linecap="butt" transform="matrix(0.53033, -0.53033, 0.53033, 0.53033, 136.083336, 168.186611)" fill="none" stroke-linejoin="miter" d="M -0.00206905 20.999208 L 243.456284 20.999208 " stroke="#101010" stroke-width="42" stroke-opacity="1" stroke-miterlimit="4"/><path stroke-linecap="butt" transform="matrix(-0.75, 0, 0, -0.75, 287.467104, 190.461959)" fill="none" stroke-linejoin="miter" d="M -0.00219464 21.001364 L 172.26865 21.001364 " stroke="#101010" stroke-width="42" stroke-opacity="1" stroke-miterlimit="4"/><path stroke-linecap="butt" transform="matrix(0, -0.75, 0.75, 0, 72.836419, 322.160808)" fill="none" stroke-linejoin="miter" d="M 0.000869593 20.999359 L 375.605061 20.999359 " stroke="#101010" stroke-width="42" stroke-opacity="1" stroke-miterlimit="4"/><path stroke-linecap="butt" transform="matrix(-0.75, 0, 0, -0.75, 287.468834, 331.964861)" fill="none" stroke-linejoin="miter" d="M 0.000112564 21.000024 L 286.177215 21.000024 " stroke="#101010" stroke-width="42" stroke-opacity="1" stroke-miterlimit="4"/><path stroke-linecap="butt" transform="matrix(0, 0.75, -0.75, 0, 320.827687, 25.852436)" fill="none" stroke-linejoin="miter" d="M -0.00116486 23.999418 L 159.998846 23.999418 " stroke="#f1f1f1" stroke-width="48" stroke-opacity="1" stroke-miterlimit="4"/></svg>